<svg width="50" height="50" viewBox="0 0 70 82" fill="none" xmlns="http://www.w3.org/2000/svg">
<path d="M35.9687 67.0767C35.2487 67.2666 34.6987 67.9267 34.6587 68.6967C34.6487 68.7766 34.6387 68.8567 34.6787 68.9967C34.6787 69.5368 34.9187 70.0768 35.3587 70.4168C35.8487 70.7868 36.4387 70.8567 36.9887 70.6768C36.9287 70.7567 36.8687 70.8468 36.8187 70.9368C36.5787 71.3368 36.5387 71.8268 36.5487 72.2868C36.5687 73.3268 37.4887 74.2067 38.5587 74.0368L38.6035 74.0298C39.4071 73.9024 40.1727 73.781 40.9287 73.4767C41.7087 73.1566 42.4587 72.7868 43.2187 72.4068C44.0887 71.9767 44.9387 71.5167 45.7887 71.0368C45.6987 71.4268 45.6787 71.8367 45.7287 72.2367C45.8487 73.1267 46.5287 73.8067 47.3687 74.0767C48.4287 74.4166 49.6387 74.3767 50.7087 74.0867C51.3787 73.9166 52.0287 73.7067 52.6787 73.4667C52.5487 73.7067 52.4487 73.9367 52.3887 74.2167C52.3187 74.5266 52.3187 74.8167 52.3687 75.1367C52.4387 75.6367 52.7187 76.2367 53.0887 76.5767L53.121 76.6062C53.3378 76.8043 53.5324 76.9823 53.8087 77.0967C54.0987 77.2267 54.3687 77.2866 54.6687 77.3467C55.1675 77.4447 55.7139 77.3522 56.2161 77.2672C56.2777 77.2569 56.3386 77.2466 56.3987 77.2367C57.2087 77.0967 57.9787 76.8167 58.7287 76.4867C58.7875 76.4606 58.8505 76.4302 58.915 76.4011C58.9493 76.3858 58.984 76.3706 59.0187 76.3567C58.9287 76.5767 58.8687 76.8068 58.8287 77.0468C58.7487 77.6367 58.9387 78.2067 59.2287 78.7067C59.4887 79.1767 59.9187 79.4368 60.3787 79.6668C60.6587 79.8068 61.0087 79.8367 61.3087 79.8567C61.6687 79.8867 62.0187 79.8667 62.3787 79.8467C62.9462 79.8112 63.5137 79.6814 64.0672 79.5548L64.2787 79.5067L65.1787 79.2968C65.3587 79.8168 65.6987 80.2267 66.0587 80.6367C66.6987 81.3667 67.9087 81.2868 68.5587 80.6367C68.8887 80.3067 69.0787 79.8567 69.0787 79.3867C69.0787 78.9068 68.8787 78.5067 68.5787 78.1568C68.6087 77.8267 68.6187 77.5167 68.5487 77.1868C68.4687 76.8468 68.3287 76.5468 68.1187 76.2767C67.6587 75.6768 66.9187 75.4967 66.2087 75.4967C65.6727 75.4967 65.1294 75.6415 64.5974 75.7832C64.5042 75.808 64.4112 75.8328 64.3187 75.8567C64.6787 75.5567 65.0387 75.2466 65.3987 74.9467C65.6085 74.7692 65.8287 74.6021 66.0489 74.435C66.511 74.0844 66.973 73.7338 67.3387 73.2868C67.5887 72.9867 67.7987 72.6768 67.9487 72.3068C68.0585 72.0322 68.1007 71.7393 68.1427 71.4472C68.1543 71.3668 68.1658 71.2865 68.1787 71.2067C68.3987 69.9567 67.1287 68.9467 65.9587 69.2567C65.7839 69.3017 65.6079 69.3435 65.4318 69.3854C64.9029 69.511 64.3739 69.6366 63.8787 69.8467C63.2187 70.1267 62.5887 70.4568 61.9687 70.8068C60.7987 71.4668 59.6187 72.1267 58.4187 72.7367C58.3287 72.7767 58.2287 72.8267 58.1387 72.8667C59.1487 72.0567 60.1887 71.2767 61.2387 70.5267C61.4887 70.3467 61.7362 70.1692 61.9837 69.9917C62.2312 69.8142 62.4787 69.6367 62.7287 69.4567C63.2107 69.1178 63.6643 68.7393 64.1194 68.3594C64.2687 68.2349 64.4181 68.1102 64.5687 67.9867C65.5287 67.1967 65.4487 65.7068 64.3787 65.0568C64.0087 64.8268 63.5787 64.6367 63.1287 64.6367C62.7487 64.6367 62.3287 64.7067 61.9887 64.8667C61.7116 64.9971 61.4493 65.1482 61.1873 65.2991C60.9671 65.4259 60.7471 65.5526 60.5187 65.6668C59.9356 65.9649 59.3525 66.2587 58.7665 66.5538C58.4682 66.7041 58.169 66.8549 57.8687 67.0067C57.0568 67.419 56.2489 67.839 55.4399 68.2594C54.9536 68.5122 54.4668 68.7652 53.9787 69.0167C53.0587 69.4467 52.1487 69.8767 51.1987 70.2267C51.1804 70.2313 51.16 70.236 51.1394 70.2415C51.1151 70.2479 51.0904 70.2559 51.0687 70.2667C51.1387 70.2067 51.2187 70.1466 51.2887 70.0967C51.8987 69.6566 52.5187 69.2267 53.1387 68.8068C53.1387 68.8068 53.1287 68.8167 53.1187 68.8167C55.9621 66.9402 58.9797 65.302 61.9783 63.6742L62.3787 63.4567C62.6262 63.3384 62.8797 63.2269 63.1342 63.115C63.8055 62.82 64.4842 62.5217 65.0787 62.0867C65.4487 61.8067 65.7687 61.5067 66.0587 61.1467C66.3687 60.7667 66.4687 60.2467 66.5387 59.7868C66.7187 58.5867 65.4987 57.4467 64.3087 57.8367C64.0021 57.9367 63.6942 58.033 63.386 58.1294C62.7997 58.313 62.2121 58.4968 61.6287 58.7067C60.6787 59.0466 59.7387 59.4467 58.8187 59.8667C57.6287 60.4068 56.4387 60.9567 55.2887 61.5867C54.5037 62.0166 53.7212 62.4467 52.9387 62.8767C52.1562 63.3068 51.3737 63.7368 50.5887 64.1668C49.5087 64.7567 48.4487 65.3667 47.3887 65.9867C47.6087 65.7966 47.8287 65.6067 48.0487 65.4268C48.7754 64.8134 49.5287 64.2356 50.282 63.6579C50.6587 63.369 51.0354 63.0801 51.4087 62.7868C51.7037 62.5568 51.9987 62.3242 52.2937 62.0918C52.5887 61.8593 52.8837 61.6267 53.1787 61.3967C53.4398 61.1906 53.7244 61.0034 54.01 60.8157C54.1401 60.7301 54.2704 60.6444 54.3987 60.5568C55.0537 60.1118 55.7062 59.6643 56.3587 59.2168C57.0112 58.7693 57.6637 58.3218 58.3187 57.8767C59.2811 57.3314 60.2394 56.7737 61.1962 56.2168C61.7307 55.9058 62.2647 55.595 62.7987 55.2868C63.2428 55.0247 63.7081 54.7944 64.1714 54.5651C64.3445 54.4794 64.5174 54.3938 64.6887 54.3068C65.6687 53.8068 66.6487 53.2968 67.6187 52.7667C68.3087 52.3867 68.6387 51.5167 68.4287 50.7667C68.2287 50.0468 67.4987 49.4166 66.7187 49.4667C66.1287 49.5067 65.5587 49.5567 64.9887 49.7367C64.4838 49.8872 63.9948 50.0613 63.5005 50.2383C63.5099 50.2346 63.5193 50.2307 63.5287 50.2267C61.4887 50.9166 59.4787 51.6568 57.5187 52.5468C56.1001 53.1874 54.7047 53.8688 53.3459 54.622C53.2721 54.5884 53.1962 54.5597 53.1187 54.5368C53.5287 53.7467 53.2587 52.6067 52.4387 52.1967C52.0387 51.9966 51.6387 51.8068 51.1787 51.8068C50.7388 51.8068 50.3387 51.9367 49.9387 52.0867C50.2087 51.6967 50.4687 51.2367 50.5087 50.7767C50.5487 50.2367 50.5188 49.7367 50.2387 49.2567C49.9688 48.7966 49.5987 48.4468 49.1387 48.1868C48.6687 47.9168 48.0887 47.8667 47.5587 47.9368C47.3118 47.973 47.0808 48.041 46.8464 48.11C46.758 48.136 46.6691 48.1621 46.5787 48.1868C46.4474 48.2243 46.3161 48.2573 46.1858 48.2902C46.0383 48.3274 45.8921 48.3643 45.7487 48.4068L45.5463 48.4682C44.625 48.7475 43.7112 49.0244 42.7887 49.2667C42.9908 49.0231 43.1938 48.7811 43.3966 48.5394C43.8762 47.9678 44.3549 47.3971 44.8187 46.8068C45.1087 46.4368 45.3887 46.0568 45.6287 45.6467C45.6845 45.5529 45.7435 45.4584 45.8031 45.3629C45.9786 45.0822 46.1593 44.7927 46.2787 44.4867C46.5687 43.7367 46.6787 42.9867 46.3187 42.2367C45.9888 41.5567 45.3187 40.9967 44.5887 40.7968C43.8383 40.5946 43.1342 40.8462 42.4318 41.0971L42.3487 41.1267C41.0632 41.5553 39.8211 42.0924 38.5795 42.6294C37.9378 42.9069 37.2962 43.1843 36.6487 43.4467C37.5367 42.5685 38.4441 41.7196 39.3614 40.8615L39.3987 40.8267L40.6587 39.6267C40.7297 39.5601 40.8015 39.4934 40.8736 39.4265C41.2993 39.0315 41.7352 38.6271 42.0687 38.1568C42.3687 37.7267 42.5887 37.2968 42.7787 36.7968C43.0387 36.1267 42.9187 35.3667 42.3987 34.8567C41.9387 34.3966 41.2988 34.2567 40.6787 34.3967C39.6061 34.6402 38.6391 35.1272 37.6678 35.6165C37.5616 35.6699 37.4552 35.7235 37.3487 35.7767L37.3471 35.7775C36.6077 36.1372 35.8682 36.497 35.1287 36.8667L31.0287 38.9467L31.0146 38.9536C31.0094 38.9562 31.0043 38.9585 30.9992 38.9611C30.1686 39.3656 29.3184 39.7405 28.4487 40.0667C28.4191 40.0794 28.3912 40.0902 28.3644 40.1001C28.3279 40.1135 28.2933 40.1251 28.2587 40.1367C29.0387 39.3567 29.8587 38.6167 30.6787 37.8867C31.6205 37.0681 32.5855 36.2885 33.5533 35.5065L33.9487 35.1868C34.0887 35.0768 34.2187 34.9567 34.3587 34.8467C34.5808 34.6671 34.8141 34.4988 35.048 34.33C35.309 34.1415 35.5708 33.9524 35.8187 33.7467C36.2587 33.3767 36.6588 32.9967 36.9888 32.5167C37.2887 32.0767 37.4187 31.6067 37.5087 31.0867C37.5137 31.0717 37.5163 31.0591 37.5187 31.0466C37.5212 31.0342 37.5237 31.0217 37.5287 31.0067C37.6587 30.3767 37.5387 29.7567 37.0687 29.2868C36.6187 28.8467 35.9587 28.6767 35.3487 28.8367C35.1457 28.8892 34.9416 28.9389 34.7374 28.9885C34.0866 29.147 33.4353 29.3056 32.8187 29.5568C32.0488 29.8667 31.2988 30.2267 30.5687 30.6167C29.7988 31.0366 29.0188 31.4467 28.2487 31.8467C27.5122 32.2301 26.7794 32.6135 26.048 32.997C25.5779 33.2435 25.1083 33.4901 24.6387 33.7367C23.4988 34.2766 22.3687 34.8067 21.1787 35.2367C21.6939 34.7144 22.2193 34.2074 22.7439 33.7012C22.946 33.5061 23.148 33.3113 23.3493 33.1156C23.5636 32.9288 23.7778 32.7418 23.9919 32.5549C25.1956 31.5039 26.3987 30.4536 27.6287 29.4368L30.3887 27.1568C30.6297 26.9575 30.8768 26.7677 31.1235 26.5781C31.6447 26.1776 32.164 25.7787 32.6187 25.2968C32.9887 24.9168 33.3487 24.4268 33.4887 23.9168C33.61 23.4874 33.6095 23.0756 33.6088 22.6405L33.6087 22.5468C33.6087 21.3967 32.4787 20.5166 31.3687 20.8367C31.1632 20.8933 30.9568 20.9478 30.7504 21.0022C29.9724 21.2073 29.1937 21.4126 28.4587 21.7367C27.4687 22.1666 26.5287 22.6767 25.5887 23.2067C24.8087 23.6466 24.0288 24.0967 23.2587 24.5568C22.7428 24.8577 22.2306 25.1625 21.7199 25.4663C21.3992 25.6571 21.079 25.8477 20.7587 26.0368L21.0099 25.8424C21.5844 25.3976 22.1551 24.9557 22.7487 24.5368C23.8087 23.7768 24.8687 23.0167 25.9287 22.2467C26.3687 21.9267 26.7988 21.6167 27.2487 21.3068C27.7587 20.9468 28.2788 20.5967 28.7887 20.2167C28.9176 20.1215 29.0448 20.0239 29.1716 19.9256C29.4975 19.6726 29.8204 19.4143 30.1587 19.1768C30.4888 18.9568 30.8187 18.7367 31.1187 18.4667C31.3987 18.2167 31.6087 17.9467 31.8187 17.6367C32.2487 16.9867 32.1687 16.2067 31.8987 15.5267C31.5587 14.6568 30.4287 14.1767 29.5787 14.5867C28.3487 15.1666 27.1188 15.7567 25.9187 16.3967C25.5794 16.5797 25.2378 16.7594 24.8962 16.9391C24.2112 17.2993 23.526 17.6597 22.8587 18.0468C22.0628 18.5072 21.2719 18.9778 20.481 19.4484C19.6919 19.9179 18.9028 20.3872 18.1087 20.8467C18.9229 20.3216 19.7301 19.7802 20.5382 19.2382C21.4075 18.6552 22.2777 18.0716 23.1587 17.5067C24.3387 16.7467 25.5188 15.9967 26.6987 15.2467C27.0188 15.0366 27.3387 14.8367 27.6787 14.6568C28.1887 14.3667 28.7287 14.0867 29.1787 13.7067C29.6087 13.3467 29.9487 12.9767 30.2487 12.5067C30.5587 12.0267 30.5587 11.4167 30.5587 10.8667C30.5687 10.3267 30.2987 9.79671 29.8687 9.46675C29.4187 9.10671 28.8688 9.0367 28.3187 9.15675L28.0487 9.21675C27.1487 9.39674 26.2587 9.56667 25.3887 9.86672C24.5788 10.1367 23.7887 10.4267 22.9987 10.7567C21.2887 11.4767 19.6087 12.2567 17.9487 13.0967C16.579 13.7902 15.2393 14.544 13.8971 15.2991C13.6911 15.4151 13.485 15.531 13.2787 15.6467C13.0587 15.7767 12.8387 15.9068 12.6187 16.0267C12.9337 15.7168 13.2487 15.4043 13.5637 15.0918C13.8787 14.7793 14.1937 14.4668 14.5087 14.1568C15.0513 13.6142 15.6004 13.078 16.1505 12.541C16.5635 12.1378 16.9771 11.7341 17.3887 11.3267L19.0587 9.68672C19.263 9.48616 19.468 9.28664 19.6728 9.08724C20.5696 8.21419 21.4635 7.34395 22.285 6.40108C22.2785 6.40962 22.2773 6.41817 22.2687 6.42671C22.4282 6.24245 22.5953 6.06502 22.762 5.88789C23.2016 5.42104 23.6387 4.95668 23.9287 4.37673C24.2587 3.70668 24.3388 2.95668 24.0387 2.25673C23.7587 1.57668 23.1087 0.976701 22.3987 0.77675C21.6287 0.566728 20.8288 0.766679 20.1287 1.10671C19.7867 1.27187 19.44 1.42928 19.0929 1.58681C18.5572 1.82997 18.0206 2.07362 17.4987 2.3467C16.5188 2.85664 15.5587 3.38667 14.6187 3.94673C13.6387 4.52669 12.6788 5.13667 11.7187 5.74672C11.6977 5.75368 11.6815 5.76564 11.6634 5.77907C11.6557 5.78475 11.6477 5.79073 11.6387 5.79671C10.2887 6.69667 8.93874 7.5967 7.59874 8.50673L7.58873 8.51674C7.58873 8.51674 7.57875 8.52675 7.56874 8.52675C7.5537 8.53676 7.54115 8.54683 7.52858 8.5569C7.51613 8.56685 7.50368 8.5768 7.48872 8.58675C6.46873 9.25673 5.44875 9.93666 4.43874 10.6167C3.9695 10.9362 3.49028 11.2357 3.01103 11.5352L3.00874 11.5367C2.83556 11.6488 2.65587 11.7576 2.47499 11.8671C1.94569 12.1877 1.40608 12.5144 0.988724 12.9467C0.658737 13.2966 0.478745 13.7466 0.518723 14.2067C0.518723 14.4367 0.568741 14.6668 0.658737 14.8867C0.888748 15.4467 1.43874 15.8866 2.04872 15.9567C2.11342 15.9639 2.1833 15.9711 2.2509 15.9746C2.27733 15.976 2.30342 15.9767 2.32872 15.9767C2.84874 15.9767 3.32872 15.7367 3.64873 15.3667C4.21581 14.9901 4.79152 14.6223 5.36784 14.254C6.03142 13.8301 6.69582 13.4057 7.34874 12.9668C8.04875 12.4967 8.74876 12.0267 9.44875 11.5667C9.46883 11.5517 9.49141 11.5366 9.51396 11.5216C9.53639 11.5066 9.55879 11.4917 9.57872 11.4767C9.58946 11.4696 9.6002 11.4611 9.6114 11.4523C9.63148 11.4365 9.65306 11.4196 9.67873 11.4068C10.9787 10.5367 12.2887 9.65669 13.5887 8.77675L13.5929 8.77419C14.8016 8.01503 16.0102 7.25581 17.2487 6.54671C17.0552 6.72688 16.8706 6.90706 16.686 7.08724C16.5939 7.17702 16.5019 7.26686 16.4087 7.35671C16.0798 7.68068 15.7483 8.00465 15.4169 8.32863C15.0833 8.65462 14.7498 8.98067 14.4187 9.30672C13.9395 9.78096 13.4578 10.2552 12.9761 10.7294C12.4928 11.2052 12.0095 11.681 11.5287 12.1568C11.1693 12.5162 10.8087 12.8745 10.4482 13.2329C9.72542 13.9512 9.00264 14.6694 8.28874 15.3967C7.93718 15.7533 7.58815 16.1099 7.23909 16.4666C6.89314 16.82 6.5472 17.1734 6.19875 17.5268C6.08836 17.6405 5.97685 17.7543 5.86494 17.8684C5.64238 18.0954 5.41835 18.3239 5.19875 18.5568L5.19307 18.5626C4.83485 18.9307 4.46706 19.3089 4.14873 19.7167C3.89873 20.0366 3.66875 20.3666 3.43874 20.6967C3.06874 21.2167 2.94875 21.8567 3.20872 22.4667C3.44875 23.0266 3.98875 23.4567 4.59874 23.5268C4.65031 23.5326 4.70146 23.5387 4.75227 23.5448C5.0464 23.5799 5.33031 23.6138 5.62874 23.5967C5.97874 23.5767 6.29875 23.4867 6.62874 23.3767C7.22874 23.1767 7.78874 22.8667 8.32872 22.5468C8.63148 22.3613 8.94188 22.1874 9.25282 22.0132C9.44511 21.9054 9.63765 21.7976 9.82872 21.6868C10.8787 21.0967 11.9288 20.4967 12.9787 19.8967C13.6587 19.4967 14.3487 19.0967 15.0487 18.7067C14.3487 19.2267 13.6587 19.7467 12.9587 20.2667C12.0187 20.9667 11.1387 21.7467 10.2687 22.5368L10.1687 22.6218C9.91905 22.8341 9.66393 23.051 9.47874 23.3068C9.28874 23.5668 9.13872 23.8067 9.01872 24.0967C8.73872 24.7367 8.91875 25.4068 9.08873 26.0368C9.29875 26.7768 10.0187 27.3567 10.7987 27.3367C10.9566 27.3323 11.1145 27.3308 11.2722 27.3294C11.824 27.3241 12.3744 27.3189 12.9187 27.1868C13.4388 27.0668 13.9587 26.8967 14.4587 26.6868C14.2887 26.8368 14.1087 26.9967 13.9387 27.1467C13.7587 27.2968 13.5888 27.4567 13.4187 27.6167C13.2341 27.797 13.0569 27.9865 12.8799 28.1758C12.6447 28.4274 12.4098 28.6785 12.1587 28.9068C11.8387 29.2067 11.5087 29.5268 11.3387 29.9368C11.1687 30.3567 11.1187 30.7566 11.1887 31.2067C11.3587 32.1767 12.1487 32.9467 13.1187 33.0767C13.5887 33.1366 14.0888 33.0767 14.5387 32.9467C15.0488 32.7966 15.5687 32.6466 16.0687 32.4567C18.1634 31.6675 20.1157 30.5177 22.0367 29.3864L22.1887 29.2968C22.2772 29.2415 22.3657 29.1892 22.4541 29.1366C22.5257 29.0941 22.5972 29.0514 22.6687 29.0067L22.4917 29.158C21.8596 29.6978 21.2241 30.2405 20.6387 30.8167L20.2485 31.1973C19.0897 32.3264 17.9407 33.4459 16.8887 34.6868C16.8347 34.7439 16.7794 34.8009 16.7239 34.858C16.4204 35.1707 16.1109 35.4894 15.9587 35.8867C15.7587 36.3867 15.7088 36.8267 15.7587 37.3667C15.8587 38.3867 16.7487 39.1967 17.7487 39.3267C18.9588 39.4867 20.2487 39.2567 21.3987 38.8767C22.6987 38.4567 23.9487 37.9667 25.1787 37.3767C25.7487 37.1067 26.3087 36.8367 26.8687 36.5468C26.792 36.6234 26.7152 36.6985 26.6391 36.7726C26.5269 36.8821 26.416 36.9894 26.3087 37.0967C26.1463 37.259 25.9801 37.4192 25.8137 37.5796C25.3755 38.0018 24.9356 38.4257 24.5587 38.8967C24.2988 39.2367 24.0488 39.5767 23.8587 39.9667C23.7456 40.2072 23.6424 40.4528 23.5386 40.6997C23.4957 40.8019 23.4526 40.9043 23.4087 41.0067C23.0987 41.7367 23.3287 42.6167 23.9587 43.0967C24.0316 43.1527 24.1039 43.2095 24.176 43.2663C24.6577 43.6452 25.1338 44.0198 25.7687 44.1067C26.5587 44.2167 27.3388 44.1067 28.1087 43.8767C28.9487 43.6267 29.7887 43.3667 30.5987 43.0167C31.3288 42.6967 32.0687 42.3667 32.7787 42.0067C32.8677 41.9646 32.9566 41.9203 33.0455 41.8748C33.1466 41.8231 33.2477 41.7699 33.3487 41.7167C33.0788 42.0066 32.8187 42.2966 32.5687 42.5967C32.1387 43.1267 31.7188 43.6867 31.4487 44.3267C31.2188 44.8966 31.2587 45.5466 31.4887 46.1067C31.9887 47.2966 33.2787 47.9066 34.5287 47.7267C35.9287 47.5266 37.2287 47.0266 38.5188 46.4767C39.5287 46.0466 40.5488 45.5967 41.5687 45.1768C41.3488 45.4368 41.1187 45.7067 40.8987 45.9767C40.7183 46.1998 40.5356 46.4208 40.3527 46.6416C40.1506 46.8859 39.9483 47.1299 39.7487 47.3767C39.4887 47.6967 39.2487 48.0266 38.9987 48.3467C38.8387 48.5567 38.6787 48.7566 38.5188 48.9667C38.2087 49.3667 37.9787 49.7767 37.8387 50.2667C37.5887 51.1467 37.8887 52.0667 38.6087 52.6267C39.3487 53.1967 40.5187 53.2868 41.3987 53.1668C42.7087 52.9867 43.9787 52.6267 45.2387 52.2567C45.189 52.319 45.1353 52.3812 45.0802 52.4435C45.0467 52.4812 45.0127 52.5191 44.9787 52.5568C44.6887 52.8767 44.3987 53.2067 44.2287 53.6067C44.0787 53.9667 44.0587 54.3567 44.0487 54.7367C44.0287 55.5266 44.6087 56.2366 45.3487 56.4467L45.3929 56.459C45.7397 56.5554 46.1039 56.6568 46.4587 56.6568C46.6687 56.6568 46.8887 56.6367 47.0987 56.6067C47.0488 56.9967 47.1087 57.3867 47.3187 57.7367C47.4143 57.9019 47.5439 58.0595 47.696 58.1923C45.9356 59.4133 44.2165 60.6948 42.5187 62.0067C41.2087 63.0167 39.8987 64.0368 38.5887 65.0468C38.3033 65.2682 38.0155 65.4872 37.7276 65.7062C37.4305 65.9321 37.1333 66.1581 36.8387 66.3867L35.9687 67.0767Z" fill="#FBFBFB"/>
</svg>
